<svg width="100%" height="100%" viewBox="0 0 1080 1080" version="1.1"
    xmlns="http://www.w3.org/2000/svg"
    style="fill-rule:evenodd;clip-rule:evenodd;stroke-linejoin:round;stroke-miterlimit:2;">
    <g transform="matrix(1.54155,0,0,1.54155,-292.436,-249.677)">
        <g transform="matrix(-0.5,-0.866025,0.866025,-0.5,652.22,1116.62)">
            <path
                d="M459.282,82.25L459.282,82.25L264.282,420L356.658,420L459.282,242.25L561.906,420L654.282,420L459.282,82.25L459.282,82.25Z"
                style="fill:rgb(255,255,255);" />
        </g>
        <g transform="matrix(0.5,0.866025,-0.866025,0.5,622.78,-98.8747)">
            <path
                d="M459.282,82.25L459.282,82.25L286.547,381.436L378.923,381.436L459.282,242.25L561.906,420L654.282,420L459.282,82.25L459.282,82.25Z"
                style="fill:rgb(255,255,255);" />
        </g>
        <g transform="matrix(1,0,0,1,-68.0918,257.75)">
            <path
                d="M416.06,317.113L323.684,317.113L264.282,420L356.658,420L416.06,317.113ZM345.111,280L437.487,280L459.282,242.25L561.906,420L654.282,420L459.282,82.25L459.282,82.25L459.282,82.25L345.111,280Z"
                style="fill:rgb(255,255,255);" />
        </g>
    </g>
</svg>